<?xml version="1.0" encoding="UTF-8" standalone="no"?>
<svg
   aria-hidden="true"
   role="img"
   class="iconify iconify--logos"
   width="31.88"
   height="32"
   preserveAspectRatio="xMidYMid meet"
   viewBox="0 0 256 257"
   version="1.1"
   id="svg6"
   sodipodi:docname="vite.svg"
   inkscape:version="1.4.2 (f4327f4, 2025-05-13)"
   xmlns:inkscape="http://www.inkscape.org/namespaces/inkscape"
   xmlns:sodipodi="http://sodipodi.sourceforge.net/DTD/sodipodi-0.dtd"
   xmlns:xlink="http://www.w3.org/1999/xlink"
   xmlns="http://www.w3.org/2000/svg"
   xmlns:svg="http://www.w3.org/2000/svg">
  <sodipodi:namedview
     id="namedview6"
     pagecolor="#505050"
     bordercolor="#eeeeee"
     borderopacity="1"
     inkscape:showpageshadow="0"
     inkscape:pageopacity="0"
     inkscape:pagecheckerboard="0"
     inkscape:deskcolor="#505050"
     showgrid="false"
     inkscape:zoom="11.313709"
     inkscape:cx="16.793786"
     inkscape:cy="34.073708"
     inkscape:window-width="1920"
     inkscape:window-height="991"
     inkscape:window-x="-9"
     inkscape:window-y="-9"
     inkscape:window-maximized="1"
     inkscape:current-layer="svg6" />
  <defs
     id="defs5">
    <linearGradient
       id="IconifyId1813088fe1fbc01fb466"
       x1="132.0291"
       x2="139.28904"
       y1="78.617996"
       y2="219.34655"
       gradientTransform="matrix(0.08799102,0,0,0.07841585,41.035942,98.52932)"
       gradientUnits="userSpaceOnUse">
      <stop
         offset="0"
         stop-color="#41D1FF"
         id="stop1"
         style="stop-color:#ff2c2c;stop-opacity:1;" />
      <stop
         offset="1"
         stop-color="#BD34FE"
         id="stop2"
         style="stop-color:#34fefe;stop-opacity:1;" />
    </linearGradient>
    <linearGradient
       id="IconifyId1813088fe1fbc01fb467"
       x1="188.00649"
       x2="199.00609"
       y1="3.5533929"
       y2="141.10861"
       gradientTransform="matrix(0.74063538,0,0,1.3501921,-8.7283019,26.184906)"
       gradientUnits="userSpaceOnUse">
      <stop
         offset="0%"
         stop-color="#FFEA83"
         id="stop3" />
      <stop
         offset="8.333%"
         stop-color="#FFDD35"
         id="stop4" />
      <stop
         offset="100%"
         stop-color="#FFA800"
         id="stop5" />
    </linearGradient>
    <linearGradient
       inkscape:collect="always"
       xlink:href="#IconifyId1813088fe1fbc01fb466"
       id="linearGradient7"
       gradientUnits="userSpaceOnUse"
       gradientTransform="matrix(0.13123097,-0.01771312,0.0157856,0.11695044,-3.155585,118.13788)"
       x1="132.0291"
       y1="78.617996"
       x2="139.28904"
       y2="219.34655" />
    <linearGradient
       inkscape:collect="always"
       xlink:href="#IconifyId1813088fe1fbc01fb466"
       id="linearGradient8"
       gradientUnits="userSpaceOnUse"
       gradientTransform="matrix(0.12797331,-0.03403164,0.03032832,0.11404728,-0.663439,160.68972)"
       x1="132.0291"
       y1="78.617996"
       x2="139.28904"
       y2="219.34655" />
    <linearGradient
       inkscape:collect="always"
       xlink:href="#IconifyId1813088fe1fbc01fb466"
       id="linearGradient9"
       gradientUnits="userSpaceOnUse"
       gradientTransform="matrix(0.12485727,-0.04411329,0.03931289,0.11127033,5.346614,184.60309)"
       x1="132.0291"
       y1="78.617996"
       x2="139.28904"
       y2="219.34655" />
    <linearGradient
       inkscape:collect="always"
       xlink:href="#IconifyId1813088fe1fbc01fb466"
       id="linearGradient10"
       gradientUnits="userSpaceOnUse"
       gradientTransform="matrix(0.09835692,-0.08866362,0.07901526,0.08765374,16.254876,214.01704)"
       x1="132.0291"
       y1="78.617996"
       x2="139.28904"
       y2="219.34655" />
    <linearGradient
       inkscape:collect="always"
       xlink:href="#IconifyId1813088fe1fbc01fb466"
       id="linearGradient11"
       gradientUnits="userSpaceOnUse"
       gradientTransform="matrix(0.06915027,-0.11293167,0.10064247,0.06162534,34.205169,237.71288)"
       x1="132.0291"
       y1="78.617996"
       x2="139.28904"
       y2="219.34655" />
    <linearGradient
       inkscape:collect="always"
       xlink:href="#IconifyId1813088fe1fbc01fb466"
       id="linearGradient12"
       gradientUnits="userSpaceOnUse"
       gradientTransform="matrix(0.0435872,-0.1250419,0.11143486,0.03884403,58.806863,250.4873)"
       x1="132.0291"
       y1="78.617996"
       x2="139.28904"
       y2="219.34655" />
    <linearGradient
       inkscape:collect="always"
       xlink:href="#IconifyId1813088fe1fbc01fb466"
       id="linearGradient13"
       gradientUnits="userSpaceOnUse"
       gradientTransform="matrix(6.2407619e-4,-0.13241953,0.11800967,5.5615655e-4,88.433189,260.17708)"
       x1="132.0291"
       y1="78.617996"
       x2="139.28904"
       y2="219.34655" />
    <linearGradient
       inkscape:collect="always"
       xlink:href="#IconifyId1813088fe1fbc01fb466"
       id="linearGradient14"
       gradientUnits="userSpaceOnUse"
       gradientTransform="matrix(0.00461464,-0.13234057,0.1179393,0.00411249,111.7609,259.63791)"
       x1="132.0291"
       y1="78.617996"
       x2="139.28904"
       y2="219.34655" />
    <linearGradient
       inkscape:collect="always"
       xlink:href="#IconifyId1813088fe1fbc01fb466"
       id="linearGradient15"
       gradientUnits="userSpaceOnUse"
       gradientTransform="matrix(-0.02346611,-0.13032523,0.11614325,-0.02091254,140.35809,263.28573)"
       x1="132.0291"
       y1="78.617996"
       x2="139.28904"
       y2="219.34655" />
    <linearGradient
       inkscape:collect="always"
       xlink:href="#IconifyId1813088fe1fbc01fb466"
       id="linearGradient16"
       gradientUnits="userSpaceOnUse"
       gradientTransform="matrix(-0.05565808,-0.12015616,0.10708077,-0.04960139,167.90893,258.64505)"
       x1="132.0291"
       y1="78.617996"
       x2="139.28904"
       y2="219.34655" />
    <linearGradient
       inkscape:collect="always"
       xlink:href="#IconifyId1813088fe1fbc01fb466"
       id="linearGradient17"
       gradientUnits="userSpaceOnUse"
       gradientTransform="matrix(-0.12694132,-0.03769913,0.03359671,-0.11312758,252.24646,193.11053)"
       x1="132.0291"
       y1="78.617996"
       x2="139.28904"
       y2="219.34655" />
    <linearGradient
       inkscape:collect="always"
       xlink:href="#IconifyId1813088fe1fbc01fb466"
       id="linearGradient18"
       gradientUnits="userSpaceOnUse"
       gradientTransform="matrix(-0.13156326,-0.0150477,0.01341023,-0.11724655,258.13747,167.24083)"
       x1="132.0291"
       y1="78.617996"
       x2="139.28904"
       y2="219.34655" />
    <linearGradient
       inkscape:collect="always"
       xlink:href="#IconifyId1813088fe1fbc01fb466"
       id="linearGradient19"
       gradientUnits="userSpaceOnUse"
       gradientTransform="matrix(-0.13237622,0.00344384,-0.00306908,-0.11797106,261.73893,145.44457)"
       x1="132.0291"
       y1="78.617996"
       x2="139.28904"
       y2="219.34655" />
    <linearGradient
       inkscape:collect="always"
       xlink:href="#IconifyId1813088fe1fbc01fb466"
       id="linearGradient20"
       gradientUnits="userSpaceOnUse"
       gradientTransform="matrix(-0.1318041,0.01276719,-0.01137785,-0.11746121,261.20755,125.27508)"
       x1="132.0291"
       y1="78.617996"
       x2="139.28904"
       y2="219.34655" />
    <linearGradient
       inkscape:collect="always"
       xlink:href="#IconifyId1813088fe1fbc01fb466"
       id="linearGradient21"
       gradientUnits="userSpaceOnUse"
       gradientTransform="matrix(0.07365932,0.11004376,-0.09806882,0.06564372,41.613314,22.239253)"
       x1="132.0291"
       y1="78.617996"
       x2="139.28904"
       y2="219.34655" />
    <linearGradient
       inkscape:collect="always"
       xlink:href="#IconifyId1813088fe1fbc01fb466"
       id="linearGradient22"
       gradientUnits="userSpaceOnUse"
       gradientTransform="matrix(0.09703572,0.09010767,-0.08030216,0.08647631,24.134732,33.494455)"
       x1="132.0291"
       y1="78.617996"
       x2="139.28904"
       y2="219.34655" />
    <linearGradient
       inkscape:collect="always"
       xlink:href="#IconifyId1813088fe1fbc01fb466"
       id="linearGradient23"
       gradientUnits="userSpaceOnUse"
       gradientTransform="matrix(0.12494714,0.03975304,-0.03908549,0.10092809,8.665359,55.425545)"
       x1="132.0291"
       y1="78.617996"
       x2="139.28904"
       y2="219.34655" />
    <linearGradient
       inkscape:collect="always"
       xlink:href="#IconifyId1813088fe1fbc01fb466"
       id="linearGradient24"
       gradientUnits="userSpaceOnUse"
       gradientTransform="matrix(0.13242101,0,0,0.11801097,0.375826,76.635998)"
       x1="132.0291"
       y1="78.617996"
       x2="139.28904"
       y2="219.34655" />
    <linearGradient
       inkscape:collect="always"
       xlink:href="#IconifyId1813088fe1fbc01fb466"
       id="linearGradient25"
       gradientUnits="userSpaceOnUse"
       gradientTransform="matrix(0.13242101,0,0,0.11801097,-0.545351,96.927571)"
       x1="132.0291"
       y1="78.617996"
       x2="139.28904"
       y2="219.34655" />
    <linearGradient
       inkscape:collect="always"
       xlink:href="#IconifyId1813088fe1fbc01fb466"
       id="linearGradient26"
       gradientUnits="userSpaceOnUse"
       gradientTransform="matrix(-0.07399551,-0.10981797,0.09786759,-0.06594333,193.63499,247.56147)"
       x1="132.0291"
       y1="78.617996"
       x2="139.28904"
       y2="219.34655" />
    <linearGradient
       inkscape:collect="always"
       xlink:href="#IconifyId1813088fe1fbc01fb466"
       id="linearGradient27"
       gradientUnits="userSpaceOnUse"
       gradientTransform="matrix(-0.08169688,-0.09527737,0.0944988,-0.07094167,213.36704,229.40747)"
       x1="132.0291"
       y1="78.617996"
       x2="139.28904"
       y2="219.34655" />
    <linearGradient
       inkscape:collect="always"
       xlink:href="#IconifyId1813088fe1fbc01fb466"
       id="linearGradient28"
       gradientUnits="userSpaceOnUse"
       gradientTransform="matrix(-0.10348157,-0.082625,0.07363374,-0.09222072,232.90483,216.12786)"
       x1="132.0291"
       y1="78.617996"
       x2="139.28904"
       y2="219.34655" />
    <linearGradient
       inkscape:collect="always"
       xlink:href="#IconifyId1813088fe1fbc01fb466"
       id="linearGradient29"
       gradientUnits="userSpaceOnUse"
       gradientTransform="matrix(-0.1318041,0.01276719,-0.01137785,-0.11746121,260.45856,106.8523)"
       x1="132.0291"
       y1="78.617996"
       x2="139.28904"
       y2="219.34655" />
    <linearGradient
       inkscape:collect="always"
       xlink:href="#IconifyId1813088fe1fbc01fb466"
       id="linearGradient30"
       gradientUnits="userSpaceOnUse"
       gradientTransform="matrix(-0.09239429,0.09486106,-0.08453829,-0.08233995,246.45447,47.257926)"
       x1="132.0291"
       y1="78.617996"
       x2="139.28904"
       y2="219.34655" />
    <linearGradient
       inkscape:collect="always"
       xlink:href="#IconifyId1813088fe1fbc01fb466"
       id="linearGradient31"
       gradientUnits="userSpaceOnUse"
       gradientTransform="matrix(-0.12664198,0.03869275,-0.03448221,-0.11286083,260.38202,85.842841)"
       x1="132.0291"
       y1="78.617996"
       x2="139.28904"
       y2="219.34655" />
    <linearGradient
       inkscape:collect="always"
       xlink:href="#IconifyId1813088fe1fbc01fb466"
       id="linearGradient32"
       gradientUnits="userSpaceOnUse"
       gradientTransform="matrix(-0.11247874,0.06988459,-0.06227975,-0.10023881,255.20712,65.005463)"
       x1="132.0291"
       y1="78.617996"
       x2="139.28904"
       y2="219.34655" />
    <linearGradient
       inkscape:collect="always"
       xlink:href="#IconifyId1813088fe1fbc01fb466"
       id="linearGradient33"
       gradientUnits="userSpaceOnUse"
       gradientTransform="matrix(-0.0351332,0.12767529,-0.1137817,-0.03131002,214.65804,13.188317)"
       x1="132.0291"
       y1="78.617996"
       x2="139.28904"
       y2="219.34655" />
    <linearGradient
       inkscape:collect="always"
       xlink:href="#IconifyId1813088fe1fbc01fb466"
       id="linearGradient34"
       gradientUnits="userSpaceOnUse"
       gradientTransform="matrix(-0.07091611,0.11183124,-0.09966178,-0.06319905,232.90292,29.626461)"
       x1="132.0291"
       y1="78.617996"
       x2="139.28904"
       y2="219.34655" />
    <linearGradient
       inkscape:collect="always"
       xlink:href="#IconifyId1813088fe1fbc01fb466"
       id="linearGradient35"
       gradientUnits="userSpaceOnUse"
       gradientTransform="matrix(-0.00252633,0.1323969,-0.11798949,-0.00225141,173.6524,0.87863642)"
       x1="132.0291"
       y1="78.617996"
       x2="139.28904"
       y2="219.34655" />
    <linearGradient
       inkscape:collect="always"
       xlink:href="#IconifyId1813088fe1fbc01fb466"
       id="linearGradient36"
       gradientUnits="userSpaceOnUse"
       gradientTransform="matrix(0.03490896,0.12773678,-0.1138365,0.03111016,94.018499,0.43077042)"
       x1="132.0291"
       y1="78.617996"
       x2="139.28904"
       y2="219.34655" />
    <linearGradient
       inkscape:collect="always"
       xlink:href="#IconifyId1813088fe1fbc01fb466"
       id="linearGradient39"
       gradientUnits="userSpaceOnUse"
       gradientTransform="matrix(0.08340994,0.10284992,-0.0916578,0.07433328,54.907732,10.919887)"
       x1="132.0291"
       y1="78.617996"
       x2="139.28904"
       y2="219.34655" />
    <linearGradient
       inkscape:collect="always"
       xlink:href="#IconifyId1813088fe1fbc01fb466"
       id="linearGradient40"
       gradientUnits="userSpaceOnUse"
       gradientTransform="matrix(0.05030406,0.12249416,-0.10916439,0.04482997,73.196682,4.2780354)"
       x1="132.0291"
       y1="78.617996"
       x2="139.28904"
       y2="219.34655" />
    <linearGradient
       inkscape:collect="always"
       xlink:href="#IconifyId1813088fe1fbc01fb466"
       id="linearGradient41"
       gradientUnits="userSpaceOnUse"
       gradientTransform="matrix(0.01266097,0.13181435,-0.11747034,0.0112832,115.34148,0.47679842)"
       x1="132.0291"
       y1="78.617996"
       x2="139.28904"
       y2="219.34655" />
    <linearGradient
       inkscape:collect="always"
       xlink:href="#IconifyId1813088fe1fbc01fb466"
       id="linearGradient42"
       gradientUnits="userSpaceOnUse"
       gradientTransform="matrix(-0.01300347,0.131781,-0.11744061,-0.01158844,193.17604,3.9712164)"
       x1="132.0291"
       y1="78.617996"
       x2="139.28904"
       y2="219.34655" />
    <linearGradient
       inkscape:collect="always"
       xlink:href="#IconifyId1813088fe1fbc01fb466"
       id="linearGradient43"
       gradientUnits="userSpaceOnUse"
       gradientTransform="matrix(-0.01091716,0.13197022,-0.11760925,-0.00972917,156.66557,2.1716914)"
       x1="132.0291"
       y1="78.617996"
       x2="139.28904"
       y2="219.34655" />
    <linearGradient
       inkscape:collect="always"
       xlink:href="#IconifyId1813088fe1fbc01fb466"
       id="linearGradient44"
       gradientUnits="userSpaceOnUse"
       gradientTransform="matrix(2.3097012e-4,0.1324208,-0.11801079,2.0583038e-4,135.59857,1.5614634)"
       x1="132.0291"
       y1="78.617996"
       x2="139.28904"
       y2="219.34655" />
    <linearGradient
       inkscape:collect="always"
       xlink:href="#IconifyId1813088fe1fbc01fb466"
       id="linearGradient49"
       gradientUnits="userSpaceOnUse"
       gradientTransform="matrix(0.13123097,-0.01771312,0.0157856,0.11695044,-3.000732,137.43138)"
       x1="132.0291"
       y1="78.617996"
       x2="139.28904"
       y2="219.34655" />
  </defs>
  <path
     fill="url(#IconifyId1813088fe1fbc01fb466)"
     d="m 31.350951,101.67015 -15.033025,26.88158 c -0.310397,0.55504 -1.107825,0.55829 -1.422851,0.007 L -0.435971,101.67235 c -0.343268,-0.6018 3.110242,2.991 3.792288,3.113 l 12.052676,20.84156 c 0.09602,0.0172 0.194318,0.0169 0.290271,-5.1e-4 l 12.026021,-21.29829 c 0.679799,-0.12388 3.96281,-3.26131 3.625666,-2.65826 z"
     id="path5"
     style="fill:url(#linearGradient25);stroke-width:0.125009"
     sodipodi:nodetypes="cccccccccc" />
  <path
     fill="url(#IconifyId1813088fe1fbc01fb466)"
     d="m 29.088455,118.57126 -11.302144,28.65087 c -0.233364,0.59158 -1.02319,0.70147 -1.409258,0.1963 L -2.412511,122.82538 c -0.420681,-0.55048 3.48238,2.54808 4.174616,2.57776 l 14.732206,19.04204 c 0.09744,0.005 0.194844,-0.009 0.287593,-0.0393 l 9.069002,-22.71555 c 0.657124,-0.21367 3.490953,-3.76207 3.237506,-3.11934 z"
     id="path5-8"
     style="fill:url(#linearGradient7);stroke-width:0.125009"
     sodipodi:nodetypes="cccccccccc" />
  <path
     fill="url(#IconifyId1813088fe1fbc01fb466)"
     d="m 29.243307,137.86475 -11.302144,28.65088 c -0.233363,0.59158 -1.023189,0.70146 -1.409257,0.1963 L -2.257658,142.11887 c -0.420681,-0.55048 3.48238,2.54809 4.174616,2.57777 l 14.732205,19.04203 c 0.09744,0.005 0.194845,-0.009 0.287594,-0.0393 l 9.069002,-22.71556 c 0.657124,-0.21366 3.490953,-3.76206 3.237506,-3.11934 z"
     id="path5-8-0"
     style="fill:url(#linearGradient49);stroke-width:0.125009"
     sodipodi:nodetypes="cccccccccc" />
  <path
     fill="url(#IconifyId1813088fe1fbc01fb466)"
     d="m 31.380365,157.07576 -7.619647,29.84214 c -0.15733,0.61616 -0.927139,0.82424 -1.373516,0.37149 L 0.661652,165.24701 c -0.486397,-0.49336 3.774452,2.09121 4.464945,2.03384 l 17.004047,17.04406 c 0.0972,-0.008 0.192161,-0.0335 0.280394,-0.0751 l 6.148523,-23.67359 c 0.625138,-0.29439 2.991567,-4.17018 2.820727,-3.50076 z"
     id="path5-5"
     style="fill:url(#linearGradient8);stroke-width:0.125009"
     sodipodi:nodetypes="cccccccccc" />
  <path
     fill="url(#IconifyId1813088fe1fbc01fb466)"
     d="m 37.000914,178.44917 -5.219312,30.35407 c -0.107764,0.62675 -0.85857,0.89545 -1.339581,0.47968 L 7.030367,189.04038 c -0.524137,-0.45307 3.928977,1.78404 4.612709,1.67188 l 18.30716,15.63602 c 0.09624,-0.0159 0.188883,-0.0487 0.273526,-0.0972 l 4.244024,-24.08798 c 0.59972,-0.34325 2.650029,-4.39515 2.533028,-3.71423 z"
     id="path5-1"
     style="fill:url(#linearGradient9);stroke-width:0.125009"
     sodipodi:nodetypes="cccccccccc" />
  <path
     fill="url(#IconifyId1813088fe1fbc01fb466)"
     d="m 43.121565,196.18319 6.832891,30.03202 c 0.141072,0.6201 -0.449047,1.15644 -1.052811,0.95717 l -29.388631,-9.70436 c -0.657896,-0.21715 4.312812,0.13906 4.901101,-0.22694 l 22.906872,7.41028 c 0.0828,-0.0516 0.155718,-0.11756 0.215269,-0.19473 l -5.328018,-23.87164 c 0.421997,-0.54714 0.759773,-5.07568 0.913125,-4.40203 z"
     id="path5-7"
     style="fill:url(#linearGradient10);stroke-width:0.125009"
     sodipodi:nodetypes="cccccccccc" />
  <path
     fill="url(#IconifyId1813088fe1fbc01fb466)"
     d="m 54.906,212.98752 15.074974,26.85808 c 0.311225,0.55456 -0.102389,1.2363 -0.737876,1.21659 l -30.934371,-0.9649 c -0.692473,-0.0215 4.17497,-1.09059 4.635183,-1.60855 l 24.068064,0.60467 c 0.06471,-0.073 0.115984,-0.15684 0.151126,-0.24787 L 55.279409,217.4675 c 0.249363,-0.64441 -0.711948,-5.08262 -0.373695,-4.48019 z"
     id="path5-2"
     style="fill:url(#linearGradient11);stroke-width:0.125009"
     sodipodi:nodetypes="cccccccccc" />
  <path
     fill="url(#IconifyId1813088fe1fbc01fb466)"
     d="M 73.784018,221.92943 94.219439,244.973 c 0.4219,0.47582 0.16252,1.22983 -0.46265,1.34552 l -30.433563,5.62724 c -0.681244,0.12616 3.848091,-1.95243 4.187789,-2.5563 l 23.647394,-4.52092 c 0.0477,-0.085 0.0801,-0.17788 0.0951,-0.27429 L 75.100419,226.2279 c 0.1068,-0.68268 -1.775186,-4.81547 -1.316709,-4.29861 z"
     id="path5-16"
     style="fill:url(#linearGradient12);stroke-width:0.125009"
     sodipodi:nodetypes="cccccccccc" />
  <path
     fill="url(#IconifyId1813088fe1fbc01fb466)"
     d="m 93.326009,228.30346 26.810441,15.15955 c 0.55355,0.31305 0.55307,1.11044 -6.8e-4,1.42286 l -26.957361,15.20418 c -0.60341,0.34041 3.00561,-3.09612 3.13083,-3.77759 l 20.898151,-11.95432 c 0.0176,-0.0959 0.018,-0.19421 7.3e-4,-0.29028 L 95.966729,231.94159 c -0.12072,-0.68037 -3.24259,-3.97813 -2.64114,-3.63816 z"
     id="path5-6"
     style="fill:url(#linearGradient13);stroke-width:0.125009"
     sodipodi:nodetypes="cccccccccc" />
  <path
     fill="url(#IconifyId1813088fe1fbc01fb466)"
     d="m 117.61212,227.92622 26.34137,15.96068 c 0.54388,0.32955 0.51935,1.12659 -0.0435,1.42218 l -27.40332,14.38484 c -0.61341,0.32209 3.09756,-3.00413 3.24325,-3.6815 l 21.24892,-11.31909 c 0.0205,-0.0954 0.0237,-0.19357 0.009,-0.29009 l -20.86628,-12.76095 c -0.10009,-0.6837 -3.12121,-4.07403 -2.5303,-3.71608 z"
     id="path5-27"
     style="fill:url(#linearGradient14);stroke-width:0.125009"
     sodipodi:nodetypes="cccccccccc" />
  <path
     fill="url(#IconifyId1813088fe1fbc01fb466)"
     d="m 139.3733,231.05377 29.12011,10.03147 c 0.60127,0.20712 0.74578,0.99135 0.2581,1.39927 l -23.74311,19.85273 c -0.53145,0.44446 2.39251,-3.59107 2.39172,-4.28394 l 18.37586,-15.55522 c -7e-5,-0.0976 -0.0177,-0.19425 -0.0525,-0.28545 l -23.09232,-8.06147 c -0.24234,-0.64708 -3.91193,-3.32213 -3.25869,-3.09722 z"
     id="path5-3"
     style="fill:url(#linearGradient15);stroke-width:0.125009"
     sodipodi:nodetypes="cccccccccc" />
  <path
     fill="url(#IconifyId1813088fe1fbc01fb466)"
     d="m 158.80584,227.70962 30.71036,2.34203 c 0.63409,0.0484 0.9722,0.77055 0.60351,1.28852 l -17.95146,25.21135 c -0.40177,0.56441 1.4067,-4.07934 1.23073,-4.74949 l 13.84532,-19.69632 c -0.0248,-0.0944 -0.0662,-0.18345 -0.12249,-0.26314 l -24.38035,-1.96028 c -0.39809,-0.56477 -4.62484,-2.22498 -3.93595,-2.17255 z"
     id="path5-34"
     style="fill:url(#linearGradient16);stroke-width:0.125009"
     sodipodi:nodetypes="cccccccccc" />
  <path
     fill="url(#IconifyId1813088fe1fbc01fb466)"
     d="m 179.74472,218.45946 30.69344,-2.55413 c 0.63373,-0.0528 1.08203,0.60676 0.80008,1.17661 l -13.7295,27.73749 c -0.30726,0.62096 0.74249,-4.25071 0.46255,-4.88452 l 10.54918,-21.64145 c -0.0395,-0.0892 -0.0945,-0.17064 -0.16266,-0.24041 l -24.38291,1.92796 c -0.48257,-0.49456 -4.91901,-1.46399 -4.2305,-1.52138 z"
     id="path5-34-8"
     style="fill:url(#linearGradient26);stroke-width:0.125009"
     sodipodi:nodetypes="cccccccccc" />
  <path
     fill="url(#IconifyId1813088fe1fbc01fb466)"
     d="m 197.48636,203.60699 30.80036,-5.34341 c 0.63593,-0.11046 1.13053,0.46146 0.88267,1.02012 L 217.099,226.47647 c -0.27011,0.60875 0.47622,-4.03586 0.15313,-4.59995 l 9.25327,-21.20074 c -0.0456,-0.0795 -0.1063,-0.15004 -0.17959,-0.20849 l -24.47434,4.15058 c -0.51857,-0.41466 -5.05637,-0.89073 -4.36547,-1.01066 z"
     id="path5-34-3"
     style="fill:url(#linearGradient27);stroke-width:0.121653"
     sodipodi:nodetypes="cccccccccc" />
  <path
     fill="url(#IconifyId1813088fe1fbc01fb466)"
     d="m 210.93835,192.5198 28.52064,-11.62689 c 0.58885,-0.2401 1.21405,0.25496 1.11566,0.88309 l -4.79477,30.57576 c -0.10731,0.68445 -0.56426,-4.27801 -1.02113,-4.79892 l 3.58554,-23.80716 c -0.0644,-0.0733 -0.14115,-0.13454 -0.22717,-0.1807 l -22.68708,9.14001 c -0.6085,-0.32738 -5.13167,0.0761 -4.49194,-0.18493 z"
     id="path5-34-2"
     style="fill:url(#linearGradient28);stroke-width:0.125009"
     sodipodi:nodetypes="cccccccccc" />
  <path
     fill="url(#IconifyId1813088fe1fbc01fb466)"
     d="m 223.0202,179.48359 22.06391,-21.48944 c 0.45557,-0.44371 1.22091,-0.2198 1.36569,0.39931 l 7.0426,30.13748 c 0.15773,0.67461 -2.13005,-3.7527 -2.74913,-4.06381 l -5.62052,-23.41042 c -0.0872,-0.0438 -0.18144,-0.0716 -0.27839,-0.0821 l -17.59183,16.99326 c -0.68693,-0.0748 -4.72728,1.99816 -4.23241,1.51606 z"
     id="path5-87"
     style="fill:url(#linearGradient17);stroke-width:0.125009"
     sodipodi:nodetypes="cccccccccc" />
  <path
     fill="url(#IconifyId1813088fe1fbc01fb466)"
     d="m 226.98669,158.90443 17.99033,-24.9992 c 0.37147,-0.51615 1.16409,-0.42877 1.41432,0.15571 l 12.17662,28.45341 c 0.27265,0.63691 -2.75024,-3.32505 -3.41399,-3.52379 l -9.60627,-22.07614 c -0.0935,-0.0279 -0.19111,-0.039 -0.28844,-0.0325 l -14.36836,19.79374 c -0.68949,0.0458 -4.30773,2.78986 -3.90426,2.22902 z"
     id="path5-79"
     style="fill:url(#linearGradient18);stroke-width:0.125009"
     sodipodi:nodetypes="cccccccccc" />
  <path
     fill="url(#IconifyId1813088fe1fbc01fb466)"
     d="m 229.73006,141.5331 14.32886,-27.26345 c 0.29583,-0.56291 1.09289,-0.58689 1.42218,-0.043 l 16.02508,26.4776 c 0.35879,0.59265 -3.18699,-2.9091 -3.87196,-3.01333 l -12.59063,-20.52104 c -0.0967,-0.0136 -0.19472,-0.0127 -0.29016,0.008 l -11.46808,21.60387 c -0.67633,0.14146 -3.87664,3.36325 -3.55529,2.75165 z"
     id="path5-86"
     style="fill:url(#linearGradient19);stroke-width:0.125009"
     sodipodi:nodetypes="cccccccccc"
     inkscape:transform-center-y="0.48669166" />
  <path
     fill="url(#IconifyId1813088fe1fbc01fb466)"
     d="m 229.00259,123.62982 12.37124,-28.205739 c 0.25548,-0.58236 1.04883,-0.6625 1.41565,-0.14317 l 17.85174,25.282029 c 0.39967,0.5659 -3.38412,-2.67719 -4.07476,-2.73287 L 242.56053,98.247661 c -0.0972,-0.008 -0.19505,0.001 -0.28888,0.0285 l -9.91655,22.358559 c -0.66471,0.18883 -3.62992,3.62819 -3.35247,2.99544 z"
     id="path5-860"
     style="fill:url(#linearGradient20);stroke-width:0.125009"
     sodipodi:nodetypes="cccccccccc" />
  <path
     fill="url(#IconifyId1813088fe1fbc01fb466)"
     d="m 228.25359,105.20704 12.37124,-28.205733 c 0.25549,-0.582362 1.04884,-0.662499 1.41565,-0.14318 l 17.85174,25.282033 c 0.39969,0.5659 -3.38412,-2.677189 -4.07475,-2.732849 l -14.00593,-19.58243 c -0.0972,-0.008 -0.19505,10e-4 -0.28888,0.0285 l -9.91656,22.358559 c -0.6647,0.18883 -3.62991,3.62818 -3.35246,2.99542 z"
     id="path5-860-5"
     style="fill:url(#linearGradient29);stroke-width:0.125009"
     sodipodi:nodetypes="cccccccccc" />
  <path
     fill="url(#IconifyId1813088fe1fbc01fb466)"
     d="m 220.80204,66.798088 -8.76788,-29.52516 c -0.18097,-0.609648 0.37303,-1.183136 0.98846,-1.023483 l 29.95656,7.776248 c 0.67061,0.173997 -4.31273,0.141148 -4.87601,0.544613 L 214.7636,38.662544 c -0.0794,0.05682 -0.1478,0.127335 -0.2022,0.20829 l 6.86631,23.475452 c -0.38559,0.573404 -0.4287,5.114309 -0.62545,4.452015 z"
     id="path5-860-0"
     style="fill:url(#linearGradient30);stroke-width:0.125009"
     sodipodi:nodetypes="cccccccccc" />
  <path
     fill="url(#IconifyId1813088fe1fbc01fb466)"
     d="m 228.49195,90.627171 6.52229,-30.101008 c 0.1347,-0.62151 0.89634,-0.85763 1.35901,-0.421515 L 258.891,81.337091 c 0.50412,0.47524 -3.84845,-1.951669 -4.53638,-1.86905 L 236.73814,63.057765 c -0.0968,0.01167 -0.1908,0.0405 -0.27746,0.08529 l -5.27795,23.882766 c -0.61394,0.3171 -2.83692,4.27689 -2.69069,3.60164 z"
     id="path5-860-6"
     style="fill:url(#linearGradient31);stroke-width:0.125009"
     sodipodi:nodetypes="cccccccccc" />
  <path
     fill="url(#IconifyId1813088fe1fbc01fb466)"
     d="m 225.61144,77.81023 -1.41755,-30.766893 c -0.0292,-0.635273 0.64637,-1.058864 1.20539,-0.756025 l 27.2109,14.74564 c 0.60915,0.330021 -4.22033,-0.899141 -4.86405,-0.642816 L 226.50954,49.048005 c -0.0906,0.03609 -0.17406,0.0881 -0.24632,0.153614 l 1.02514,24.437521 c -0.51205,0.463972 -1.64486,4.861513 -1.67675,4.171347 z"
     id="path5-860-2"
     style="fill:url(#linearGradient32);stroke-width:0.125009"
     sodipodi:nodetypes="cccccccccc" />
  <path
     fill="url(#IconifyId1813088fe1fbc01fb466)"
     d="M 201.62289,42.683235 179.69316,21.056898 c -0.45277,-0.446581 -0.24437,-1.216246 0.37171,-1.373459 l 29.98943,-7.64852 c 0.67133,-0.171288 -3.70898,2.205223 -4.00756,2.830461 l -23.29238,6.091159 c -0.0421,0.088 -0.0681,0.182825 -0.0771,0.279877 l 17.34435,17.245779 c -0.061,0.688312 2.09303,4.686056 1.60105,4.200993 z"
     id="path5-860-3"
     style="fill:url(#linearGradient33);stroke-width:0.125009"
     sodipodi:nodetypes="cccccccccc" />
  <path
     fill="url(#IconifyId1813088fe1fbc01fb466)"
     d="M 211.81616,54.023469 197.16504,26.931856 c -0.30246,-0.55941 0.12174,-1.234555 0.7569,-1.204848 l 30.91539,1.450822 c 0.69203,0.0324 -4.19159,1.024854 -4.65988,1.535518 l -24.05559,-0.982755 c -0.066,0.07189 -0.11844,0.154997 -0.15503,0.245412 l 11.54632,21.562125 c -0.25945,0.640438 0.63201,5.093183 0.30327,4.485501 z"
     id="path5-860-01"
     style="fill:url(#linearGradient34);stroke-width:0.125009"
     sodipodi:nodetypes="cccccccccc" />
  <path
     fill="url(#IconifyId1813088fe1fbc01fb466)"
     d="M 168.30215,32.678637 141.71227,17.135511 c -0.549,-0.320983 -0.53706,-1.118274 0.021,-1.422716 l 27.173,-14.81532958 c 0.60824,-0.331715 -3.04979,3.05261198 -3.18478,3.73220698 l -21.0677,11.6528586 c -0.019,0.09567 -0.0208,0.193962 -0.005,0.290244 l 21.065,12.430157 c 0.11085,0.68205 3.18511,4.024303 2.58859,3.675712 z"
     id="path5-860-54"
     style="fill:url(#linearGradient35);stroke-width:0.125009"
     sodipodi:nodetypes="cccccccccc" />
  <path
     fill="url(#IconifyId1813088fe1fbc01fb466)"
     d="M 97.852219,32.449008 67.958524,25.034314 C 67.34129,24.88116 67.127928,24.112854 67.577616,23.663375 L 89.470399,1.7870934 c 0.49002,-0.489764 -2.06527,3.788709 -2.00315,4.478788 L 70.54027,23.386475 c 0.0087,0.09715 0.03485,0.19193 0.07699,0.27989 l 23.715229,5.985931 c 0.29869,0.62311 4.19062,2.962877 3.52001,2.796632 z"
     id="path5-860-014"
     style="fill:url(#linearGradient36);stroke-width:0.125009"
     sodipodi:nodetypes="cccccccccc" />
  <path
     fill="url(#IconifyId1813088fe1fbc01fb466)"
     d="m 71.315203,38.680647 -30.347689,5.256316 c -0.626624,0.108473 -1.13142,-0.508775 -0.900916,-1.101324 L 51.291404,13.993493 c 0.251199,-0.645669 -0.363981,4.299671 -0.02912,4.906252 L 42.666673,41.38869 c 0.04715,0.08538 0.10918,0.161639 0.183225,0.225155 l 24.117168,-4.075007 c 0.524396,0.449984 5.029124,1.023623 4.348371,1.141618 z"
     id="path5-860-9"
     style="fill:url(#linearGradient39);stroke-width:0.125009"
     sodipodi:nodetypes="cccccccccc" />
  <path
     fill="url(#IconifyId1813088fe1fbc01fb466)"
     d="M 80.926379,35.584853 50.349216,31.890541 c -0.631355,-0.07627 -0.937279,-0.812694 -0.546088,-1.313908 L 68.849139,6.1816524 c 0.426292,-0.546139 -1.585264,4.0133006 -1.439017,4.6905626 l -14.70062,19.066434 c 0.0206,0.09532 0.0581,0.186214 0.110712,0.26834 l 24.270145,3.033701 c 0.37282,0.581796 4.52221,2.426833 3.83629,2.344046 z"
     id="path5-860-8"
     style="fill:url(#linearGradient40);stroke-width:0.125009"
     sodipodi:nodetypes="cccccccccc" />
  <path
     fill="url(#IconifyId1813088fe1fbc01fb466)"
     d="M 113.67028,32.680409 85.474529,20.286448 c -0.58216,-0.255963 -0.66166,-1.049369 -0.14204,-1.415765 L 110.6289,1.0393224 c 0.56623,-0.39922598 -2.67992,3.381965 -2.73615,4.072551 L 88.299049,19.102021 c -0.008,0.09722 0.001,0.195056 0.0282,0.288909 l 22.350561,9.934563 c 0.18829,0.664851 3.62526,3.63283 2.99274,3.354887 z"
     id="path5-860-03"
     style="fill:url(#linearGradient41);stroke-width:0.125009"
     sodipodi:nodetypes="cccccccccc" />
  <path
     fill="url(#IconifyId1813088fe1fbc01fb466)"
     d="M 185.32422,35.247635 160.04877,17.647556 c -0.52185,-0.363453 -0.4468,-1.157293 0.13379,-1.416574 L 188.4435,3.6141314 c 0.6326,-0.282504 -3.28196,2.801498 -3.47034,3.468269 l -21.92439,9.9478176 c -0.0265,0.09385 -0.036,0.191712 -0.028,0.288934 l 20.01446,14.059347 c 0.0564,0.688692 2.85638,4.263905 2.28935,3.869168 z"
     id="path5-860-25"
     style="fill:url(#linearGradient42);stroke-width:0.125009"
     sodipodi:nodetypes="cccccccccc" />
  <path
     fill="url(#IconifyId1813088fe1fbc01fb466)"
     d="M 149.30949,33.568408 123.7588,16.37037 c -0.52753,-0.355151 -0.46506,-1.15008 0.11136,-1.418513 l 28.0578,-13.0623376 c 0.62806,-0.292476 -3.23722,2.853063 -3.41503,3.52273 L 126.74866,15.705651 c -0.0249,0.09427 -0.0332,0.192263 -0.0234,0.289335 l 20.23434,13.740972 c 0.0682,0.687626 2.9235,4.218186 2.35029,3.832467 z"
     id="path5-860-78"
     style="fill:url(#linearGradient43);stroke-width:0.125009"
     sodipodi:nodetypes="cccccccccc" />
  <path
     fill="url(#IconifyId1813088fe1fbc01fb466)"
     d="M 130.91163,33.465972 104.00388,18.479865 c -0.55555,-0.309481 -0.56022,-1.106848 -0.009,-1.422846 L 130.85331,1.6791094 c 0.60122,-0.344308 -2.98556,3.115452 -3.10637,3.797712 L 106.92646,17.565822 c -0.017,0.09605 -0.0167,0.194349 7.3e-4,0.290287 l 21.31926,11.988848 c 0.12502,0.679592 3.2682,3.957112 2.66456,3.621015 z"
     id="path5-860-20"
     style="fill:url(#linearGradient44);stroke-width:0.125009"
     sodipodi:nodetypes="cccccccccc" />
  <path
     fill="url(#IconifyId1813088fe1fbc01fb466)"
     d="m 55.414512,51.383592 -30.701118,2.460255 c -0.6339,0.0508 -1.080177,-0.610076 -0.79647,-1.179069 L 37.731183,24.969431 c 0.309157,-0.620008 -0.755492,4.248405 -0.477498,4.88306 L 26.638368,51.461565 c 0.03916,0.08934 0.09396,0.170941 0.161877,0.240944 L 51.18892,49.849103 c 0.481072,0.496036 4.914511,1.479055 4.225835,1.534321 z"
     id="path5-65"
     style="fill:url(#linearGradient21);stroke-width:0.125009"
     sodipodi:nodetypes="cccccccccc" />
  <path
     fill="url(#IconifyId1813088fe1fbc01fb466)"
     d="M 44.280616,58.673994 14.972748,68.142911 C 14.367611,68.338416 13.78106,67.79818 13.926011,67.17912 l 7.060231,-30.133358 c 0.157956,-0.674566 0.243858,4.30816 0.660629,4.861669 l -5.349933,23.473716 c 0.05868,0.07791 0.130825,0.144692 0.213044,0.197155 l 23.305167,-7.423737 c 0.582425,0.371818 5.123076,0.306722 4.465673,0.519209 z"
     id="path5-0"
     style="fill:url(#linearGradient22);stroke-width:0.125009"
     sodipodi:nodetypes="cccccccccc" />
  <path
     fill="url(#IconifyId1813088fe1fbc01fb466)"
     d="M 37.190678,69.056923 14.102879,87.534281 c -0.476708,0.3815 -1.230204,0.14489 -1.34454,-0.422 L 7.197088,59.516306 c -0.12458,-0.617732 1.944072,3.491739 2.547216,3.800836 l 4.469652,21.442829 c 0.08491,0.0435 0.177718,0.0729 0.274052,0.0867 l 18.401314,-14.605 c 0.682453,0.09815 4.819298,-1.599563 4.301454,-1.185025 z"
     id="path5-89"
     style="fill:url(#linearGradient23);stroke-width:0.119015"
     sodipodi:nodetypes="cccccccccc" />
  <path
     fill="url(#IconifyId1813088fe1fbc01fb466)"
     d="M 32.272127,81.378561 17.239103,108.26015 c -0.310397,0.55505 -1.107825,0.55828 -1.422851,0.007 L 0.485206,81.380761 c -0.343268,-0.60179 3.110241,2.99101 3.792287,3.11301 L 16.33017,105.33532 c 0.09601,0.0172 0.194318,0.0169 0.29027,-5e-4 L 28.646461,84.036521 c 0.6798,-0.12386 3.96281,-3.2613 3.625666,-2.65826 z"
     id="path5-60"
     style="fill:url(#linearGradient24);stroke-width:0.125009"
     sodipodi:nodetypes="cccccccccc" />
  <path
     style="fill:none;fill-opacity:1;stroke:#f2f3ff;stroke-width:5.17089;stroke-dasharray:none;stroke-opacity:0.875231"
     d="m 196.90278,187.12203 c 0,-17.34693 2.47811,-33.5907 0.48185,-54.31063 -0.5623,-5.83632 -2.14129,-11.66472 -1.97315,-17.56979 0.39254,-13.78146 -4.74367,-32.37696 -8.42124,-46.379746 -5.03832,-19.184036 -32.62872,-29.32456 -59.13096,-28.980376 -26.50223,0.344195 -54.863065,12.734845 -62.5728,43.849162 -7.709735,31.1143 -7.985099,59.88815 -6.333007,80.88344 1.65208,20.99526 5.231603,34.21196 5.231603,34.21196 0.111196,0.4449 4.497522,-18.35582 24.230629,-9.36183 10.03328,30.81242 20.375725,6.05766 20.375725,6.05766 0,0 8.51428,-20.20154 25.33201,5.50697 10.77218,16.46695 21.52635,-14.89847 20.37574,-9.91252 0.22292,1.44888 10.74982,-9.5482 18.17295,7.01962 9.75495,21.7722 24.45252,-10.79037 24.23065,-11.01392 z"
     id="path44"
     sodipodi:nodetypes="csssssscccscsc" />
  <ellipse
     style="fill:#000000;fill-opacity:1;stroke:#f2f3ff;stroke-width:5.97622;stroke-dasharray:none;stroke-opacity:0.875231"
     id="path45"
     cx="103.55982"
     cy="94.469238"
     rx="13.089389"
     ry="13.640085" />
  <circle
     style="fill:#000000;fill-opacity:1;stroke:#f2f3ff;stroke-width:5.17089;stroke-dasharray:none;stroke-opacity:0.875231"
     id="path46"
     cx="152.29645"
     cy="96.504547"
     r="13.2167" />
  <path
     style="fill:#000000;fill-opacity:1;stroke:#f2f3ff;stroke-width:5.17089;stroke-dasharray:none;stroke-opacity:0.875231"
     d="m 86.763605,139.35091 c 25.344895,-0.36711 52.592245,-0.73424 79.300185,-1.10135 0,0 -13.76739,67.18489 -34.14314,0.5507"
     id="path47"
     sodipodi:nodetypes="ccc" />
  <path
     style="fill:none;fill-opacity:1;stroke:#f2f3ff;stroke-width:5.17089;stroke-dasharray:none;stroke-opacity:0.875231"
     d="m 176.25839,141.5786 c 0,0 7.86026,52.90564 16.02283,1.2093"
     id="path48" />
  <path
     style="fill:none;fill-opacity:1;stroke:#f2f3ff;stroke-width:5.17089;stroke-dasharray:none;stroke-opacity:0.875231"
     d="m 64.098408,146.11338 c 0,0 9.674172,55.9288 22.673867,-0.60458"
     id="path49" />
</svg>
